<svg width="21" height="20" viewBox="0 0 21 20" fill="none" xmlns="http://www.w3.org/2000/svg">
<g id="Media / Social icon" clip-path="url(#clip0_4301_54294)">
<path id="Vector" d="M20.3052 10.2303C20.3052 9.55056 20.2501 8.86711 20.1325 8.19836H10.7002V12.0492H16.1016C15.8775 13.2911 15.1573 14.3898 14.1027 15.0879V17.5866H17.3252C19.2176 15.8449 20.3052 13.2728 20.3052 10.2303Z" fill="#4285F4"/>
<path id="Vector_2" d="M10.7002 20.0006C13.3972 20.0006 15.6717 19.1151 17.3289 17.5865L14.1064 15.0879C13.2098 15.6979 12.0524 16.0433 10.7038 16.0433C8.09499 16.0433 5.88297 14.2832 5.08929 11.9169H1.76392V14.4927C3.46151 17.8695 6.91916 20.0006 10.7002 20.0006Z" fill="#34A853"/>
<path id="Vector_3" d="M5.08564 11.9169C4.66676 10.6749 4.66676 9.33008 5.08564 8.08811V5.51233H1.76395C0.345611 8.33798 0.345611 11.667 1.76395 14.4927L5.08564 11.9169Z" fill="#FBBC04"/>
<path id="Vector_4" d="M10.7002 3.95805C12.1258 3.936 13.5038 4.47247 14.5363 5.45722L17.3913 2.60218C15.5835 0.904587 13.1841 -0.0287217 10.7002 0.000673888C6.91916 0.000673888 3.46151 2.13185 1.76392 5.51234L5.08561 8.08813C5.87562 5.71811 8.09131 3.95805 10.7002 3.95805Z" fill="#EA4335"/>
</g>
<defs>
<clipPath id="clip0_4301_54294">
<rect width="20" height="20" fill="white" transform="translate(0.5)"/>
</clipPath>
</defs>
</svg>
